var face = {"glyphs":{"S":{"x_min":9,"x_max":573.5625,"ha":606,"o":"m 517 887 l 460 836 q 443 837 452 837 q 340 805 402 837 q 227 716 277 769 q 156 591 171 655 q 156 545 150 563 q 218 513 165 512 q 302 529 243 513 q 452 554 410 556 q 572 384 582 547 q 456 124 564 248 q 199 -24 347 0 q 150 -29 172 -29 q 9 58 47 -29 l 68 88 q 159 51 96 51 q 213 56 184 51 q 406 168 321 79 q 502 366 492 258 q 413 490 511 480 q 286 473 381 493 q 189 459 227 459 q 110 526 110 459 q 115 573 110 547 q 204 732 136 655 q 345 846 265 801 q 485 892 424 892 q 517 887 502 892 "},"/":{"x_min":-61,"x_max":575.109375,"ha":535,"o":"m 575 1051 l -24 -154 l -61 -124 l 526 1038 l 575 1051 "},"K":{"x_min":-22,"x_max":591.890625,"ha":571,"o":"m 107 327 l -22 -35 l 153 673 l 191 695 l 123 401 l 511 870 l 591 915 l 268 523 q 371 490 332 522 q 436 399 405 462 q 518 156 461 348 l 459 59 q 340 419 390 362 q 219 465 296 469 l 107 327 "},"7":{"x_min":118,"x_max":565.21875,"ha":526,"o":"m 504 938 l 168 754 l 138 775 l 565 1017 l 559 941 l 166 -13 l 118 7 l 504 938 "},"d":{"x_min":33.84375,"x_max":666.171875,"ha":713,"o":"m 666 1036 l 625 147 l 538 38 l 552 218 q 198 -46 385 -46 q 89 -3 132 -46 q 37 117 46 38 q 117 443 17 267 q 353 680 213 611 q 464 709 413 709 q 584 663 530 709 l 606 958 l 666 1036 m 568 458 q 505 631 578 584 q 435 651 473 651 q 346 629 395 651 q 190 495 263 590 q 92 294 117 401 q 81 205 81 247 q 116 83 81 129 q 214 37 152 37 q 457 188 339 37 q 568 458 559 319 "},",":{"x_min":5,"x_max":338.328125,"ha":408,"o":"m 171 263 l 338 344 l 86 -120 l 5 -147 l 171 263 "},"Y":{"x_min":129,"x_max":587.328125,"ha":547,"o":"m 305 451 l 235 13 l 174 1 l 251 429 l 129 665 l 173 690 l 287 497 l 587 917 l 305 451 "},"E":{"x_min":-25,"x_max":587.5,"ha":592,"o":"m 122 398 l 38 38 l 493 137 l 563 62 l -25 -42 l 156 689 l 355 828 l 587 958 l 527 881 l 193 701 l 134 453 l 301 523 l 291 466 l 122 398 "},"y":{"x_min":79,"x_max":615.109375,"ha":574,"o":"m 237 65 l 134 445 l 176 469 l 277 144 l 562 684 l 615 715 l 79 -304 l 237 65 "},"\"":{"x_min":43,"x_max":494.375,"ha":461,"o":"m 81 822 l 220 888 l 118 541 l 43 518 l 81 822 m 316 934 l 494 1018 l 409 634 l 315 605 l 316 934 "},"g":{"x_min":-2,"x_max":635.5,"ha":701,"o":"m 574 661 l 581 747 l 635 731 l 603 123 q 561 -35 599 44 q 482 -144 538 -82 q 431 -201 457 -173 q 388 -232 404 -229 l -2 -292 q 189 -219 107 -251 q 410 -122 386 -143 q 503 5 467 -71 q 531 112 527 54 l 548 323 q 279 88 429 138 q 216 77 245 77 q 129 118 160 77 q 98 216 98 158 q 109 295 98 251 q 209 494 134 395 q 375 644 284 593 q 499 684 443 684 q 574 661 541 684 m 563 504 q 466 631 573 631 q 370 601 423 631 q 232 479 293 559 q 150 313 170 398 q 142 254 142 280 q 166 177 142 208 q 235 145 191 145 q 295 156 261 145 q 473 296 391 190 q 563 504 554 402 "},"e":{"x_min":71,"x_max":676.984375,"ha":685,"o":"m 676 504 l 121 282 q 116 227 116 252 q 243 81 116 81 q 312 92 273 81 q 639 95 351 102 l 298 16 q 232 8 262 8 q 111 60 154 8 q 71 187 71 109 q 86 288 71 233 q 198 507 115 405 q 387 668 280 609 q 529 710 466 710 q 676 504 684 710 m 611 538 q 490 651 596 651 q 379 619 441 651 q 134 336 204 530 l 611 538 "},"J":{"x_min":-3,"x_max":569.234375,"ha":588,"o":"m 569 907 l 535 402 q 421 135 527 266 q 198 -18 315 4 q -3 88 77 -41 l 48 131 q 212 61 113 38 q 417 237 331 87 q 467 380 462 313 l 513 876 l 569 907 "},"|":{"x_min":-77,"x_max":148,"ha":138,"o":"m 148 861 l -15 -158 l -77 -165 l 102 834 l 148 861 "},"‐":{"x_min":44,"x_max":487.0625,"ha":483,"o":"m 487 614 l 480 523 l 44 356 l 63 435 l 487 614 "},"^":{"x_min":30,"x_max":516.109375,"ha":482,"o":"m 299 954 l 516 719 l 284 869 l 30 561 l 299 954 "},"q":{"x_min":83,"x_max":648.28125,"ha":732,"o":"m 584 659 l 591 746 l 648 730 l 608 -150 l 559 312 q 276 73 437 123 q 208 62 238 62 q 115 100 148 62 q 83 204 83 138 q 176 455 83 323 q 373 640 262 576 q 506 681 448 681 q 584 659 549 681 m 573 498 q 550 593 577 559 q 473 626 523 626 q 364 594 423 626 q 203 445 274 545 q 126 243 126 338 q 227 130 126 130 q 287 141 255 130 q 478 284 392 176 q 573 498 564 393 "},"b":{"x_min":-12,"x_max":645.515625,"ha":614,"o":"m 214 801 l 140 497 q 363 709 244 651 q 478 738 422 738 q 601 681 556 738 q 644 510 650 620 q 510 166 638 338 q 206 -22 371 -22 q 49 119 89 -22 l 15 -22 l -12 43 l 165 738 l 214 801 m 574 483 q 542 627 581 575 q 439 676 504 676 q 353 656 397 676 q 166 479 246 606 q 86 231 86 352 q 117 116 86 163 q 219 62 154 62 q 461 212 349 62 q 574 483 563 347 "},"D":{"x_min":-25,"x_max":627.125,"ha":611,"o":"m -25 -33 l 155 685 l 352 831 q 458 869 393 862 q 537 859 509 874 q 611 777 586 828 q 626 662 630 734 l 622 573 q 383 103 609 319 q 204 7 300 23 l -25 -33 m 37 47 l 223 87 q 388 195 302 104 q 502 362 459 273 q 554 534 547 456 l 562 648 q 551 734 566 700 q 493 805 529 780 q 433 816 473 818 q 350 790 394 813 l 194 706 l 37 47 "},"∙":{"x_min":0,"x_max":0,"ha":285},"z":{"x_min":-8,"x_max":554.5,"ha":575,"o":"m 554 765 l 550 720 l 72 63 l 460 172 l 525 111 l -8 -19 l 7 40 l 468 673 l 169 523 l 139 548 l 554 765 "},"w":{"x_min":75,"x_max":645.828125,"ha":603,"o":"m 468 97 l 384 75 l 320 441 l 134 9 l 75 -7 l 109 468 l 148 487 l 127 93 l 302 495 l 361 523 l 434 187 l 645 742 l 468 97 "},"$":{"x_min":-24,"x_max":601,"ha":579,"o":"m 326 820 l 352 968 l 371 847 q 601 975 395 858 l 342 793 q 244 712 289 763 q 181 602 194 655 q 199 543 170 554 q 307 554 223 534 q 444 577 413 579 q 526 542 498 576 q 549 437 553 508 q 463 237 544 334 q 251 91 378 136 l 180 -347 l 192 77 q -24 30 131 69 q 234 158 105 94 q 403 261 332 183 q 480 415 473 334 q 403 513 488 512 q 292 495 382 513 q 153 495 185 475 q 134 540 134 508 q 203 706 134 615 q 326 820 253 772 "},"™":{"x_min":114,"x_max":1012.609375,"ha":963,"o":"m 1012 545 l 751 468 l 752 497 q 832 561 830 520 l 840 917 l 636 434 l 613 427 l 501 741 l 450 439 q 468 413 445 413 q 501 419 480 413 l 498 392 l 358 352 l 362 376 q 420 429 413 393 l 476 748 q 470 773 480 773 q 434 761 462 773 l 437 777 l 544 830 l 654 565 l 837 973 l 989 1049 l 989 1029 q 920 969 919 996 l 925 591 q 954 563 925 563 q 1011 576 973 563 l 1012 545 m 394 670 l 379 661 q 379 687 379 676 q 358 712 379 712 q 327 704 345 712 l 298 691 l 218 362 q 216 352 216 356 q 230 338 216 338 q 254 343 239 338 l 248 319 l 114 281 l 120 303 q 169 347 161 315 l 252 669 l 225 655 q 151 561 168 625 l 139 555 l 166 644 l 408 762 l 394 670 "},"\\":{"x_min":141,"x_max":470.15625,"ha":558,"o":"m 179 861 l 470 -50 l 395 -100 l 141 824 l 179 861 "},"’":{"x_min":12,"x_max":167.5625,"ha":156,"o":"m 164 816 q 12 581 141 643 q 46 614 30 594 q 113 711 87 658 q 125 794 128 743 q 77 759 112 781 q 59 756 67 756 q 30 808 20 756 q 68 873 37 838 q 131 908 100 908 q 167 842 167 908 q 164 816 167 829 "},"~":{"x_min":57,"x_max":543.125,"ha":507,"o":"m 515 748 q 465 700 487 720 q 387 641 409 648 q 325 637 354 629 q 254 683 307 641 q 211 709 223 706 q 184 708 200 713 q 150 684 168 702 q 86 606 137 672 l 57 621 q 134 716 86 658 q 236 769 191 775 q 287 745 258 765 q 358 701 347 705 q 390 704 372 700 q 509 825 441 723 q 543 871 525 845 l 515 748 "},"-":{"x_min":44,"x_max":487.0625,"ha":483,"o":"m 487 614 l 480 523 l 44 356 l 63 435 l 487 614 "},"Q":{"x_min":101,"x_max":730.21875,"ha":725,"o":"m 413 112 l 426 -519 l 330 63 q 267 52 299 52 q 171 81 214 52 q 114 150 128 111 q 101 237 101 188 q 120 368 101 294 q 238 619 155 500 q 435 812 326 744 q 582 864 516 864 q 730 665 732 864 q 592 291 727 477 q 413 112 474 130 m 663 631 q 596 800 670 755 q 544 815 573 815 q 428 775 495 815 q 230 559 314 705 q 142 276 142 409 q 171 170 142 213 q 264 120 205 120 q 320 130 289 120 q 553 331 451 172 q 663 631 656 491 "},"M":{"x_min":-24,"x_max":692.671875,"ha":740,"o":"m 345 323 l 282 302 l 205 691 l 198 687 l 20 -39 l -24 -46 l 160 666 l 239 747 l 326 387 l 589 941 l 692 954 l 657 75 l 576 59 l 632 921 l 620 914 l 345 323 "},"C":{"x_min":46.890625,"x_max":631.71875,"ha":589,"o":"m 631 919 l 566 869 q 549 869 559 869 q 405 827 481 869 q 240 681 304 771 q 129 456 154 560 l 105 362 q 94 267 94 311 q 135 126 94 183 q 264 63 182 63 q 314 69 288 63 q 474 144 366 79 l 303 -15 q 176 -3 233 -26 q 106 47 130 15 q 67 126 88 71 q 47 232 47 182 q 62 337 45 275 l 90 447 q 269 759 133 618 q 410 870 335 829 q 583 925 506 925 q 631 919 608 925 "},"[":{"x_min":-86,"x_max":280.671875,"ha":261,"o":"m 162 815 l -12 -137 l 127 -211 l -86 -231 l 127 832 l 280 924 l 162 815 "},"L":{"x_min":-6,"x_max":495.375,"ha":529,"o":"m 188 719 l 41 66 l 428 156 l 495 85 l 189 26 l -6 55 l 149 698 l 188 719 "},"!":{"x_min":-49.671875,"x_max":201.625,"ha":203,"o":"m 201 857 l 89 275 l 33 258 l 114 808 q 201 857 203 863 m 39 168 l 51 172 q 100 154 84 180 q 111 94 115 129 q 80 22 105 56 q 18 -22 53 -16 l 5 -25 q -42 0 -28 -30 q -47 59 -53 26 q -16 127 -40 94 q 39 168 7 159 "}," ":{"x_min":0,"x_max":0,"ha":335},"{":{"x_min":11,"x_max":283.21875,"ha":264,"o":"m 90 424 q 123 389 112 413 q 124 316 133 360 l 76 3 q 86 -83 66 -51 q 142 -118 108 -122 l 133 -213 q 37 -168 67 -218 q 11 -62 11 -124 q 15 -7 11 -36 l 70 296 q 63 356 77 338 q 17 362 49 374 q 33 428 33 416 q 31 431 33 432 q 85 478 63 448 q 113 542 108 507 l 151 749 q 198 848 159 798 q 283 926 237 898 l 274 881 q 223 832 249 867 q 198 775 204 805 l 165 566 q 90 424 154 495 "},"X":{"x_min":-4,"x_max":750.171875,"ha":785,"o":"m 415 505 l 750 100 l 647 80 l 376 445 l 48 -37 l -4 -49 l 352 479 l 221 665 l 268 691 l 391 537 l 698 928 l 415 505 "},"P":{"x_min":-37,"x_max":563.421875,"ha":525,"o":"m 97 353 l 10 -22 l -37 -31 l 140 694 l 338 841 q 464 882 411 882 q 563 772 569 882 q 460 562 556 665 q 247 409 353 448 l 97 353 m 110 411 l 261 470 q 422 591 349 505 q 503 744 496 677 q 428 829 511 829 q 335 800 390 829 l 181 715 l 110 411 "},"%":{"x_min":-27,"x_max":739.671875,"ha":778,"o":"m 354 641 q 202 538 273 538 q 154 575 164 538 q 157 640 146 602 q 235 776 174 705 q 366 856 304 856 q 418 797 418 856 q 354 641 418 725 m 382 755 q 364 815 392 801 q 289 798 335 831 q 228 741 253 775 q 184 654 195 697 q 191 588 173 609 q 253 587 210 568 q 336 657 298 608 q 382 755 374 706 m 735 330 q 653 115 732 218 q 450 1 563 1 q 347 50 384 1 q 310 166 310 98 q 316 220 310 191 q 388 386 329 309 q 528 493 446 463 q 592 505 563 505 q 700 451 661 505 q 735 330 736 402 m 675 315 q 652 409 678 370 q 567 452 621 452 q 524 445 546 452 q 414 362 466 426 q 353 194 353 286 q 382 104 353 141 q 461 66 410 66 q 614 155 543 66 q 675 315 673 229 m -27 -12 l 710 1074 l 739 1068 l -13 -40 l -27 -12 "},"#":{"x_min":8,"x_max":527.453125,"ha":493,"o":"m 391 697 l 355 502 l 476 545 l 469 476 l 342 433 l 256 -15 l 192 -16 l 284 414 l 160 373 l 59 -40 l 8 -42 l 112 356 l 14 325 l 30 384 l 127 419 l 174 601 l 92 563 l 103 615 l 188 654 l 256 915 l 299 938 l 235 676 l 348 729 l 403 1001 l 453 1026 l 402 754 l 527 812 l 524 755 l 391 697 m 339 675 l 221 622 l 177 438 l 298 482 l 339 675 "},"_":{"x_min":64.90625,"x_max":893,"ha":833,"o":"m 841 -130 l 84 -426 q 68 -426 72 -430 q 79 -388 58 -416 q 99 -374 86 -378 l 840 -65 q 880 -57 870 -52 q 893 -76 891 -61 q 841 -130 893 -111 "},"+":{"x_min":37,"x_max":418.9375,"ha":422,"o":"m 238 465 l 205 255 l 149 239 l 185 444 l 37 386 l 49 441 l 195 502 l 225 670 l 274 694 l 248 523 l 418 595 l 413 533 l 238 465 "},")":{"x_min":-71,"x_max":257.484375,"ha":269,"o":"m 205 295 q 81 9 173 193 q -40 -213 27 -101 l -71 -160 q 108 199 0 -31 q 185 463 170 366 q 184 657 199 549 q 126 800 177 707 l 162 844 q 208 781 174 832 q 252 650 242 717 q 205 295 273 510 "},"'":{"x_min":26,"x_max":210.71875,"ha":196,"o":"m 53 890 l 210 965 l 109 572 l 26 547 l 53 890 "},"}":{"x_min":-86,"x_max":245.9375,"ha":247,"o":"m 169 459 q 133 554 120 483 l 170 761 q 162 798 176 790 q 123 795 147 808 l 130 834 q 191 850 169 858 q 216 787 225 838 l 183 577 q 195 525 177 543 q 245 522 212 508 l 237 456 q 144 327 158 422 l 94 15 q 25 -147 79 -76 q -86 -225 -29 -219 l -65 -137 q -2 -86 -36 -133 q 36 4 26 -45 l 90 308 q 125 405 100 365 q 169 459 141 430 "},"a":{"x_min":34,"x_max":587.125,"ha":594,"o":"m 478 100 l 488 212 q 181 -1 328 33 q 134 -7 156 -7 q 34 98 34 -7 q 135 322 34 206 q 332 461 206 405 q 515 519 422 499 l 522 612 q 472 668 528 668 q 370 636 432 668 l 168 573 l 379 686 q 506 725 453 725 q 586 641 592 725 l 559 200 l 478 100 m 510 457 q 329 405 435 448 q 181 315 245 372 q 86 170 104 247 q 82 134 82 151 q 149 65 82 65 q 336 145 232 65 q 496 311 404 200 l 510 457 "},"T":{"x_min":151,"x_max":677.390625,"ha":632,"o":"m 399 796 l 271 0 l 210 -11 l 351 770 l 178 677 l 151 698 l 677 992 l 616 912 l 399 796 "},"—":{"x_min":137,"x_max":892.5625,"ha":896,"o":"m 892 430 l 137 133 l 149 178 l 892 488 l 892 430 "},"=":{"x_min":40,"x_max":658.046875,"ha":633,"o":"m 655 689 l 91 443 l 103 493 l 658 749 l 655 689 m 645 452 l 40 247 l 55 305 l 648 523 l 645 452 "},"N":{"x_min":-28,"x_max":592.84375,"ha":644,"o":"m 558 63 l 456 45 l 185 683 l 17 -31 l -28 -40 l 151 681 l 210 751 l 490 176 l 556 944 l 592 634 l 558 63 "},"2":{"x_min":-24,"x_max":624.765625,"ha":653,"o":"m 39 41 l 510 130 l 585 48 l -24 -42 l 2 66 q 377 529 189 290 q 545 769 524 713 q 562 826 560 805 q 482 913 569 913 q 389 886 441 913 l 151 788 l 396 929 q 521 968 464 968 q 624 859 628 968 q 606 780 624 824 q 419 509 576 709 q 41 45 188 218 l 39 41 "},"j":{"x_min":-343,"x_max":255.609375,"ha":274,"o":"m 255 994 l 245 886 l 168 842 l 180 948 l 255 994 m 173 687 l 234 768 l 170 45 q -16 -304 151 -184 q -137 -345 -72 -342 l -343 -354 l -122 -251 q -45 -215 -84 -234 q 22 -159 -5 -195 q 100 30 87 -76 l 173 687 "},"Z":{"x_min":-28,"x_max":580.34375,"ha":606,"o":"m 555 62 l -28 -42 l -3 62 l 522 881 l 208 712 l 178 733 l 580 957 l 574 891 l 34 40 l 484 137 l 555 62 "},"u":{"x_min":22,"x_max":537.28125,"ha":528,"o":"m 416 90 l 427 202 q 140 -6 278 26 q 103 -11 120 -11 q 22 90 22 -11 q 31 162 22 123 l 112 497 l 163 565 l 76 177 q 70 134 70 154 q 128 61 70 61 q 152 65 140 61 q 437 302 290 101 l 474 680 l 537 761 l 494 188 l 416 90 "},"1":{"x_min":-64,"x_max":141.5625,"ha":132,"o":"m 141 919 l -4 3 l -64 -6 l 86 832 l 141 919 "},"k":{"x_min":-21,"x_max":433.15625,"ha":489,"o":"m 79 300 l 10 -15 l -21 51 l 147 772 l 197 838 l 97 377 l 347 669 l 433 708 l 191 430 l 419 48 l 317 31 l 147 377 l 79 300 "},"<":{"x_min":75,"x_max":684.71875,"ha":701,"o":"m 75 362 l 656 922 l 684 895 l 158 397 l 659 222 l 616 135 l 75 362 "},"t":{"x_min":76,"x_max":520.4375,"ha":538,"o":"m 260 651 l 485 763 q 251 600 369 681 l 178 206 q 176 177 176 191 q 267 91 176 91 q 316 97 288 91 q 470 155 357 105 l 520 93 q 309 14 445 59 q 255 10 280 10 q 120 139 120 10 q 126 191 120 164 l 203 579 l 76 518 l 214 629 l 241 762 l 285 788 l 260 651 "},"W":{"x_min":26,"x_max":692.671875,"ha":653,"o":"m 549 66 l 434 44 l 359 636 l 102 -20 l 26 -36 l 142 647 l 180 666 l 85 54 l 328 663 l 402 701 l 492 151 l 692 949 l 549 66 "},"v":{"x_min":103,"x_max":583.546875,"ha":544,"o":"m 273 51 l 178 26 l 103 476 l 146 498 l 225 106 l 250 113 l 583 722 l 273 51 "},">":{"x_min":7,"x_max":686.171875,"ha":640,"o":"m 686 644 l 12 40 l 7 98 l 550 590 l 150 649 l 179 697 l 686 644 "},"s":{"x_min":22,"x_max":543.28125,"ha":546,"o":"m 487 715 l 435 645 q 309 612 383 634 q 142 451 165 538 q 165 407 134 415 q 262 423 188 400 q 413 460 372 458 q 511 431 476 462 q 542 337 547 400 q 443 142 535 243 q 206 8 351 41 q 155 3 183 3 q 22 29 90 3 l 52 102 q 116 77 72 95 q 216 81 155 65 q 399 183 331 112 q 474 315 467 254 q 390 394 483 394 q 270 373 344 394 q 148 350 184 347 q 102 433 83 354 q 315 658 133 560 q 487 715 377 692 "},"B":{"x_min":-7,"x_max":612.78125,"ha":658,"o":"m -7 30 l 156 679 l 370 834 q 487 872 440 872 q 569 776 577 872 q 438 559 562 676 q 570 521 523 563 q 612 394 616 479 q 449 94 604 226 q 301 17 374 30 l -7 30 m 136 451 l 298 520 q 480 672 419 571 q 512 752 506 716 q 498 800 516 783 q 451 818 480 818 q 365 790 415 818 l 195 699 l 136 451 m 38 40 l 308 98 q 423 159 368 111 q 505 261 474 202 q 540 369 536 319 q 514 459 545 423 q 430 498 483 495 q 291 463 383 501 l 123 397 l 38 40 "},"?":{"x_min":112.984375,"x_max":525.390625,"ha":490,"o":"m 262 445 l 226 229 l 217 465 q 395 616 344 561 q 465 745 459 686 q 395 836 474 836 q 237 765 333 836 q 159 697 209 744 l 126 704 q 233 799 208 780 q 438 894 356 894 q 524 774 533 894 q 473 645 520 708 q 262 445 416 567 m 199 172 l 216 176 q 267 156 251 186 q 277 97 283 133 q 246 25 271 59 q 184 -19 219 -13 l 166 -22 q 119 4 131 -28 q 115 64 109 29 q 148 133 123 107 q 199 172 173 165 "},"H":{"x_min":-24,"x_max":552.390625,"ha":581,"o":"m 464 547 l 119 405 l 23 -22 l -24 -31 l 148 681 l 187 704 l 131 458 l 471 606 l 498 875 l 552 906 l 491 70 l 416 55 l 464 547 "},"c":{"x_min":53,"x_max":609.9375,"ha":583,"o":"m 609 797 l 365 623 q 202 485 269 574 q 108 291 134 397 q 97 212 97 247 q 128 116 97 152 q 218 76 159 76 q 282 84 247 76 q 333 88 296 88 q 553 74 408 88 l 268 9 q 201 1 232 1 q 90 48 128 1 q 53 170 53 95 q 66 273 53 216 q 179 503 96 395 q 376 673 262 612 q 609 797 447 710 "},"&":{"x_min":12,"x_max":602.28125,"ha":568,"o":"m 352 73 l 316 156 q 113 -1 218 -1 q 39 37 66 -1 q 12 137 12 75 q 23 221 12 176 q 192 472 62 378 q 168 587 160 549 q 227 701 181 642 q 328 792 274 761 l 385 824 l 321 747 q 252 685 285 728 q 212 608 218 643 q 234 502 203 569 l 335 288 l 602 626 l 362 236 l 395 163 l 352 73 m 202 431 q 66 234 98 363 q 59 176 59 204 q 131 73 59 73 q 291 216 210 73 l 202 431 "},"I":{"x_min":-50,"x_max":133.328125,"ha":133,"o":"m 133 803 l 9 22 l -50 11 l 87 777 l 133 803 "},"ˉ":{"x_min":0,"x_max":0,"ha":285},"G":{"x_min":42.703125,"x_max":687.4375,"ha":696,"o":"m 656 197 q 469 28 577 83 q 312 -26 388 -13 q 70 61 127 -56 q 43 172 45 112 q 63 322 40 229 l 88 419 q 274 743 136 601 q 418 854 341 810 l 687 1006 l 415 812 q 186 573 284 740 q 129 437 147 508 l 105 339 q 88 222 88 273 q 251 50 88 50 q 438 97 347 50 q 540 170 501 129 l 372 486 l 656 197 "},"(":{"x_min":8,"x_max":285.78125,"ha":268,"o":"m 74 561 q 169 761 106 646 q 253 903 206 830 l 285 898 q 152 644 234 807 q 83 422 99 512 q 73 186 64 325 q 152 -138 78 102 l 94 -204 q 35 -9 76 -159 q 8 221 8 121 q 74 561 8 384 "},"`":{"x_min":40,"x_max":203.890625,"ha":190,"o":"m 78 947 l 203 869 l 159 806 l 40 893 l 78 947 "},"U":{"x_min":29.3125,"x_max":597.890625,"ha":618,"o":"m 597 914 l 568 443 q 447 144 560 287 q 213 -19 340 5 q 172 -22 192 -22 q 34 102 59 -22 q 42 254 21 168 l 143 663 l 182 684 l 85 269 q 75 194 75 229 q 103 98 75 137 q 188 55 132 55 q 339 119 263 55 q 446 254 400 170 q 500 418 492 338 l 597 914 "},"F":{"x_min":-36,"x_max":605.671875,"ha":565,"o":"m 112 397 l 11 -34 l -36 -43 l 144 679 l 344 827 l 605 972 l 544 895 l 183 699 l 125 451 l 291 522 l 282 465 l 112 397 "},"r":{"x_min":-11,"x_max":483.4375,"ha":450,"o":"m 164 584 l 137 464 q 232 621 194 586 q 302 668 257 644 l 483 763 l 307 626 q 247 585 293 622 q 119 378 220 560 l 37 1 l -11 -11 l 111 516 l 164 584 "},":":{"x_min":-6.171875,"x_max":250.5,"ha":272,"o":"m 169 648 l 179 653 q 232 660 211 669 q 250 616 252 648 q 216 545 246 582 q 152 491 186 508 l 143 487 q 93 487 111 473 q 82 533 76 501 q 118 605 87 566 q 169 648 143 633 m 100 243 l 111 247 q 172 234 151 261 q 189 166 193 208 q 151 77 183 120 q 73 20 116 30 l 61 18 q 4 40 21 8 q -4 108 -10 68 q 35 193 4 154 q 100 243 66 231 "},"x":{"x_min":9,"x_max":764.5625,"ha":754,"o":"m 409 405 l 764 163 l 653 134 l 365 352 l 68 -19 l 9 -35 l 338 374 l 202 487 l 257 515 l 378 426 l 661 722 l 409 405 "},"*":{"x_min":54,"x_max":477.609375,"ha":446,"o":"m 217 629 l 249 808 l 299 833 l 270 650 l 462 790 l 477 743 l 276 600 l 373 459 l 315 401 l 227 548 l 90 335 l 58 362 l 192 566 l 54 565 l 79 620 l 217 629 "},"V":{"x_min":130,"x_max":668.890625,"ha":625,"o":"m 280 13 l 198 -3 l 130 645 l 168 668 l 248 83 l 252 83 l 668 942 l 280 13 "},"μ":{"x_min":0,"x_max":0,"ha":285},"h":{"x_min":-40,"x_max":531.40625,"ha":581,"o":"m 198 828 l 135 541 q 330 720 228 670 q 432 747 386 747 q 508 709 482 747 q 530 620 535 672 l 490 56 l 465 590 q 397 687 475 687 q 318 665 365 687 q 221 597 262 640 q 116 463 193 566 l 8 -18 l -40 -25 l 150 762 l 198 828 "},"0":{"x_min":22,"x_max":556.71875,"ha":543,"o":"m 553 706 l 544 549 q 440 187 531 363 q 162 -35 326 -35 q 60 18 98 -35 q 22 174 22 71 q 48 366 22 258 l 80 501 q 184 748 115 640 q 344 908 253 856 q 442 940 398 940 q 556 751 556 940 q 553 706 556 730 m 491 673 q 494 730 494 704 q 408 887 494 887 q 337 866 377 887 q 205 726 265 827 q 122 512 148 630 l 92 391 q 70 213 70 291 q 173 48 70 48 q 199 51 185 48 q 384 220 301 69 q 478 536 462 363 l 491 673 "},".":{"x_min":38.015625,"x_max":219.84375,"ha":317,"o":"m 135 244 l 145 249 q 201 248 180 264 q 219 194 223 232 q 183 113 215 154 q 113 60 152 72 l 103 56 q 50 62 67 42 q 40 121 33 83 q 75 194 46 158 q 135 244 103 230 "},"”":{"x_min":28,"x_max":392.453125,"ha":365,"o":"m 391 865 q 232 616 373 684 q 269 651 251 631 q 339 755 312 698 q 348 842 354 789 q 275 800 280 800 q 240 851 232 800 q 280 920 246 884 q 348 957 315 957 q 391 865 397 957 m 175 775 q 28 549 144 607 q 61 580 44 564 q 123 673 98 622 q 139 754 139 705 q 94 722 125 741 q 79 719 86 719 q 53 754 53 719 q 84 825 53 786 q 148 865 116 865 q 178 809 178 865 q 175 775 178 793 "},"@":{"x_min":5,"x_max":538.65625,"ha":503,"o":"m 431 340 q 307 305 348 305 q 202 418 202 305 q 291 625 202 522 q 473 762 367 712 l 480 825 q 421 911 488 911 q 349 888 389 911 q 123 533 182 797 l 71 308 q 55 133 55 236 q 70 -26 55 35 l 11 -33 q 5 87 5 23 q 27 294 5 204 l 81 518 q 187 764 113 651 q 353 930 261 877 q 456 964 410 964 q 538 854 543 964 l 431 340 m 467 708 q 327 606 388 673 q 255 452 255 530 q 327 380 255 380 q 378 388 350 380 q 439 415 406 397 l 467 708 "},"f":{"x_min":64,"x_max":573.71875,"ha":535,"o":"m 234 588 l 118 -23 l 64 -32 l 187 566 l 84 520 l 198 619 l 214 691 q 289 827 227 759 q 412 926 343 887 l 573 1018 l 405 880 q 259 715 277 811 l 244 641 l 490 756 l 234 588 "},";":{"x_min":-40,"x_max":354.78125,"ha":342,"o":"m 265 664 l 280 672 q 336 681 316 689 q 354 640 357 672 q 322 568 350 604 q 257 515 298 537 l 240 506 q 187 504 204 493 q 176 548 171 516 q 208 614 182 580 q 265 664 229 642 m 119 276 l 290 343 l 37 -100 l -40 -117 l 119 276 "},"“":{"x_min":34,"x_max":388.3125,"ha":363,"o":"m 388 743 q 347 666 384 705 q 274 627 311 627 q 228 705 228 627 q 229 740 228 723 q 379 972 254 895 q 345 937 361 955 q 282 842 304 892 q 270 762 267 812 q 343 802 338 802 q 377 785 365 802 q 388 743 389 768 m 163 661 q 128 594 156 627 q 65 558 96 558 q 34 613 34 558 q 39 665 34 637 q 178 876 72 812 q 147 845 161 862 q 89 759 111 805 q 72 683 74 731 q 117 715 86 697 q 132 719 124 719 q 163 661 172 719 "},"i":{"x_min":-39,"x_max":165.171875,"ha":153,"o":"m 165 939 l 147 823 l 77 787 l 98 900 l 165 939 m 130 698 l 22 -1 l -39 -11 l 70 620 l 130 698 "},"6":{"x_min":40.84375,"x_max":657.65625,"ha":614,"o":"m 104 365 q 327 593 217 544 q 396 609 361 609 q 497 555 460 609 q 528 394 536 497 q 424 108 517 247 q 179 -50 316 -50 q 41 152 45 -50 q 149 600 36 390 q 343 851 222 737 q 475 948 403 907 l 657 1053 l 466 904 q 254 708 356 841 q 118 433 152 570 q 104 365 113 413 m 91 270 q 88 205 88 236 q 193 31 88 31 q 388 168 304 31 q 463 406 463 288 q 434 510 463 473 q 361 547 406 547 q 314 537 339 547 q 220 468 261 515 q 91 270 166 408 "},"A":{"x_min":-13,"x_max":739.78125,"ha":788,"o":"m 552 422 l 191 300 l 32 -31 l -13 -40 l 366 769 l 477 869 l 739 93 l 649 76 l 552 422 m 534 480 l 438 806 l 420 798 l 221 366 l 534 480 "},"‘":{"x_min":18,"x_max":166.609375,"ha":156,"o":"m 161 701 q 122 629 155 666 q 55 593 90 593 q 18 658 18 593 q 22 702 18 680 q 166 924 51 854 q 133 892 148 908 q 72 801 95 848 q 58 722 58 772 q 106 756 72 736 q 124 759 115 759 q 153 743 142 759 q 161 701 163 726 "},"n":{"x_min":-6,"x_max":535.9375,"ha":571,"o":"m 171 580 l 156 509 q 345 686 253 636 q 446 718 406 718 q 514 688 489 718 q 535 613 538 658 l 498 109 l 425 91 l 473 577 q 413 658 481 658 q 337 636 380 658 q 253 577 288 612 q 138 433 213 537 l 41 0 l -6 -11 l 120 512 l 171 580 "},"O":{"x_min":58,"x_max":730.375,"ha":717,"o":"m 730 640 q 659 362 727 516 q 481 93 587 198 q 233 -26 359 -26 q 103 38 149 -26 q 58 212 58 103 q 81 377 58 290 q 217 663 121 530 q 417 854 310 793 q 549 893 485 893 q 680 830 631 893 q 730 640 733 762 m 658 611 q 625 778 664 716 q 514 840 585 840 q 410 811 466 840 q 236 643 317 759 q 120 394 155 526 q 102 261 102 323 q 142 111 102 166 q 249 55 181 55 q 535 261 405 55 q 658 611 648 441 "},"3":{"x_min":-43,"x_max":650.203125,"ha":692,"o":"m 480 621 q 607 566 562 619 q 650 426 652 514 q 526 136 644 278 q 257 -28 404 -8 q -43 -72 163 -42 l 272 55 q 475 184 383 76 q 576 400 568 291 q 547 510 580 466 q 451 558 513 554 q 332 538 391 563 l 340 594 l 384 612 q 513 711 457 641 q 575 840 569 780 q 512 912 582 912 q 416 881 470 912 l 184 787 l 423 925 q 552 967 497 967 q 636 871 641 967 q 480 621 629 747 "},"]":{"x_min":-93,"x_max":272.265625,"ha":268,"o":"m 66 -125 l 219 853 l 119 832 l 272 922 l 119 -211 l -93 -231 l 66 -125 "},"m":{"x_min":7,"x_max":689.171875,"ha":689,"o":"m 190 548 l 179 502 q 344 634 276 634 q 391 595 375 634 q 544 750 470 711 q 618 771 584 771 q 688 687 693 771 l 670 213 l 588 109 l 625 652 q 579 711 629 711 q 541 701 561 711 q 393 530 473 666 l 326 119 l 255 30 l 343 516 q 344 536 344 527 q 312 579 344 579 q 159 423 259 579 l 51 -17 l 7 -29 l 140 483 l 190 548 "},"9":{"x_min":-58,"x_max":639.859375,"ha":618,"o":"m 572 688 q 447 516 522 593 q 265 415 348 415 q 191 450 219 415 q 162 544 162 486 q 237 759 162 644 q 397 920 308 869 q 501 954 455 954 q 601 890 568 954 q 639 640 644 806 q 575 372 633 497 q 319 48 486 178 q 122 -44 217 -31 l -58 -69 l 133 35 q 420 235 285 62 q 569 601 555 408 q 572 688 571 613 m 568 777 q 468 902 537 902 q 392 879 436 902 q 281 775 333 847 q 212 626 229 704 q 207 576 207 600 q 283 479 207 479 q 490 638 380 479 q 568 777 514 673 "},"l":{"x_min":-57,"x_max":148.546875,"ha":138,"o":"m 148 908 l 4 2 l -57 -7 l 94 838 l 148 908 "},"8":{"x_min":9,"x_max":551.140625,"ha":586,"o":"m 397 584 q 535 392 546 569 q 417 112 525 248 q 160 -36 299 -36 q 49 15 89 -36 q 9 150 9 66 q 185 497 9 341 q 118 581 118 517 q 196 769 118 666 q 347 909 265 860 q 460 944 409 944 q 550 837 557 944 q 397 584 543 720 m 490 806 q 424 891 499 891 q 339 865 386 891 q 222 761 277 830 q 163 618 163 681 q 228 551 163 551 q 289 566 254 551 q 423 670 363 597 q 490 806 484 743 m 464 369 q 439 482 471 440 q 350 525 407 525 q 281 511 317 525 q 124 379 192 476 q 57 186 57 281 q 88 86 57 125 q 174 47 118 47 q 370 158 279 47 q 464 369 454 259 "},"p":{"x_min":-27,"x_max":657.9375,"ha":671,"o":"m 206 540 l 186 461 q 391 656 281 594 q 527 697 463 697 q 624 658 588 697 q 657 545 660 619 q 543 274 653 413 q 296 91 432 134 q 225 79 257 79 q 113 155 146 79 l -27 -243 l 157 476 l 206 540 m 592 516 q 569 610 596 577 q 491 643 542 643 q 384 612 442 643 q 223 463 295 563 q 145 261 145 356 q 246 148 145 148 q 307 159 274 148 q 497 302 410 194 q 592 516 584 409 "},"4":{"x_min":13,"x_max":492.171875,"ha":514,"o":"m 372 354 l 13 243 l 29 315 l 385 928 l 492 990 l 408 25 l 335 14 l 372 354 m 379 424 l 433 915 l 406 899 l 75 320 l 379 424 "},"R":{"x_min":-22,"x_max":589.109375,"ha":647,"o":"m 119 377 l 23 -24 l -22 -33 l 158 687 l 364 837 q 478 874 428 874 q 550 847 523 874 q 572 772 576 821 q 350 482 562 636 q 447 408 405 459 q 589 165 484 359 l 536 65 q 466 222 494 165 q 378 369 415 325 q 268 434 333 420 l 119 377 m 132 432 l 257 483 q 478 662 400 543 q 514 747 509 709 q 496 800 518 780 q 440 819 473 819 q 354 793 404 819 l 197 708 l 132 432 "},"o":{"x_min":59,"x_max":666.328125,"ha":631,"o":"m 665 516 q 536 203 660 358 q 265 12 413 47 q 210 6 236 6 q 98 54 138 6 q 59 183 59 103 q 159 464 59 318 q 377 668 253 602 q 514 707 449 707 q 627 658 585 707 q 665 516 670 609 m 596 488 q 568 606 602 565 q 475 648 535 648 q 367 619 425 648 q 186 452 265 568 q 103 222 103 330 q 136 118 103 156 q 225 79 168 79 q 277 86 250 79 q 489 238 392 116 q 596 488 586 361 "},"5":{"x_min":-57,"x_max":640.21875,"ha":643,"o":"m 256 780 l 208 550 q 370 659 305 627 q 470 686 424 686 q 541 666 508 686 q 612 472 619 620 q 487 137 602 284 q 229 -36 368 -14 q -57 -78 143 -48 l 240 47 q 331 90 274 53 q 440 184 399 131 q 541 451 530 304 q 523 565 547 520 q 433 622 497 622 q 195 491 337 622 q 141 429 170 460 l 226 799 l 640 1036 l 256 780 "}}}
